<?xml version="1.0" encoding="UTF-8" standalone="no"?>
<!-- Created with Inkscape (http://www.inkscape.org/) -->

<svg
   width="126.84979mm"
   height="30.639971mm"
   viewBox="0 0 126.84979 30.639971"
   version="1.1"
   id="svg62"
   inkscape:export-filename="anaozon_logo.svg"
   inkscape:export-xdpi="96"
   inkscape:export-ydpi="96"
   xmlns:inkscape="http://www.inkscape.org/namespaces/inkscape"
   xmlns:sodipodi="http://sodipodi.sourceforge.net/DTD/sodipodi-0.dtd"
   xmlns="http://www.w3.org/2000/svg"
   xmlns:svg="http://www.w3.org/2000/svg">
  <sodipodi:namedview
     id="namedview64"
     pagecolor="#ffffff"
     bordercolor="#000000"
     borderopacity="0.25"
     inkscape:showpageshadow="2"
     inkscape:pageopacity="0.0"
     inkscape:pagecheckerboard="0"
     inkscape:deskcolor="#d1d1d1"
     inkscape:document-units="mm"
     showgrid="true">
    <inkscape:grid
       type="xygrid"
       id="grid488"
       empspacing="4"
       originx="-34.648475"
       originy="-110.8077" />
  </sodipodi:namedview>
  <defs
     id="defs59" />
  <g
     inkscape:label="Layer 1"
     inkscape:groupmode="layer"
     id="layer1"
     transform="translate(-0.57510463,-50.600521)">
    <path
       d="M 17.175036,75.253882 V 71.4737 h -1.610688 v -7.560364 c 0,-4.076022 -2.498207,-6.311261 -7.3631365,-6.311261 -3.6158262,0 -5.5880951,1.249105 -6.9686839,3.287115 l 2.8926619,2.56395 c 0.7560358,-1.051877 1.7750417,-2.038012 3.7144391,-2.038012 2.0380117,0 2.8597904,1.051878 2.8597904,2.728307 v 1.084747 H 7.9711129 c -4.5690893,0 -7.39600827,1.74217 -7.39600827,5.390868 0,2.991275 1.90652747,5.029286 5.35799797,5.029286 2.6296918,0 4.5362174,-1.183361 5.0621564,-3.418599 h 0.197227 c 0.29584,1.840783 1.544943,3.024145 3.287115,3.024145 z M 7.7410157,72.262607 c -1.4463316,0 -2.2681103,-0.59168 -2.2681103,-1.840783 v -0.493067 c 0,-1.249105 0.9861344,-1.939399 2.8597904,-1.939399 h 2.3667232 v 2.038012 c 0,1.577814 -1.3477173,2.235237 -2.9584033,2.235237 z"
       id="path3236"
       style="font-weight:bold;font-size:22.5778px;font-family:'IBM Plex Sans';-inkscape-font-specification:'IBM Plex Sans Bold';fill:#ffffff;stroke-width:35.5193;paint-order:stroke fill markers;stop-color:#000000" />
    <path
       d="M 55.469952,75.253882 V 71.4737 h -1.610686 v -7.560364 c 0,-4.076022 -2.498207,-6.311261 -7.363137,-6.311261 -3.615826,0 -5.588095,1.249105 -6.968684,3.287115 l 2.892661,2.56395 c 0.756037,-1.051877 1.775043,-2.038012 3.71444,-2.038012 2.038012,0 2.859791,1.051878 2.859791,2.728307 v 1.084747 h -2.728306 c -4.56909,0 -7.396009,1.74217 -7.396009,5.390868 0,2.991275 1.906526,5.029286 5.357997,5.029286 2.629693,0 4.536219,-1.183361 5.062158,-3.418599 h 0.197227 c 0.29584,1.840783 1.544943,3.024145 3.287115,3.024145 z m -9.434018,-2.991275 c -1.446332,0 -2.268111,-0.59168 -2.268111,-1.840783 v -0.493067 c 0,-1.249105 0.986135,-1.939399 2.859791,-1.939399 h 2.366723 v 2.038012 c 0,1.577814 -1.347717,2.235237 -2.958403,2.235237 z m 3.024144,-16.764285 c 1.742172,0 2.958404,-0.920392 3.747311,-2.103753 L 51.09809,51.15933 c -0.690294,0.55881 -1.183362,0.821778 -1.939397,0.821778 -0.854651,0 -1.610688,-0.328711 -2.563951,-0.723164 -0.821778,-0.361583 -1.544944,-0.657423 -2.531079,-0.657423 -1.74217,0 -2.958403,0.920392 -3.74731,2.103753 l 1.7093,2.235238 c 0.690294,-0.558809 1.183362,-0.821779 1.939397,-0.821779 0.854651,0 1.610686,0.328712 2.563951,0.723166 0.821778,0.361583 1.544943,0.657423 2.531077,0.657423 z"
       id="path3240"
       style="font-weight:bold;font-size:22.5778px;font-family:'IBM Plex Sans';-inkscape-font-specification:'IBM Plex Sans Bold';fill:#ffffff;stroke-width:35.5193;paint-order:stroke fill markers;stop-color:#000000" />
    <path
       id="path3238"
       style="font-weight:bold;font-size:22.5778px;font-family:'IBM Plex Sans';-inkscape-font-specification:'IBM Plex Sans Bold';fill:#ffffff;stroke-width:35.5193;paint-order:stroke fill markers;stop-color:#000000"
       d="m 30.290835,57.602439 c -2.728296,0 -4.174758,1.511504 -4.799305,3.319413 H 25.294412 V 57.996675 H 20.42965 V 75.25356 h 4.864762 V 64.078002 c 0,-1.709296 1.544486,-2.531692 3.122293,-2.531692 1.775038,0 2.40003,1.084701 2.40003,3.287062 v 4.760183 c 0.07859,-0.05976 0.157912,-0.1186 0.238498,-0.175301 0.264655,-0.186212 0.539474,-0.353695 0.820072,-0.490539 0.04677,-0.02281 0.09362,-0.04518 0.140692,-0.06621 0.04707,-0.02103 0.09411,-0.04106 0.141444,-0.06019 0.142005,-0.0574 0.285174,-0.105463 0.428844,-0.143701 0.167616,-0.04461 0.335777,-0.07564 0.504082,-0.08953 0.04809,-0.004 0.0964,-0.0063 0.144453,-0.0075 0.02403,-6e-4 0.04821,-8.67e-4 0.07223,-7.53e-4 0.04802,2.29e-4 0.09577,0.0021 0.1437,0.0053 0.02397,0.0016 0.04829,0.0037 0.07223,0.006 0.0718,0.007 0.142983,0.01748 0.214423,0.0316 0.04763,0.0094 0.09553,0.0204 0.142948,0.03311 0.02371,0.0064 0.04663,0.01321 0.06997,0.02031 0.04668,0.0142 0.09321,0.02955 0.138435,0.04665 0.02261,0.0085 0.0447,0.01708 0.06696,0.02633 0.06677,0.02775 0.13202,0.05874 0.195612,0.09254 0.0424,0.02253 0.08388,0.04641 0.124892,0.07148 0.02051,0.01253 0.04077,0.02523 0.06094,0.03837 0.04033,0.02629 0.08064,0.05412 0.119626,0.08276 0.03899,0.02864 0.07669,0.05865 0.114359,0.08953 0.03767,0.03088 0.07498,0.06256 0.111349,0.09555 0.03637,0.03299 0.07249,0.06734 0.107587,0.102321 0.105304,0.10495 0.204406,0.218604 0.298688,0.339314 0.03143,0.04024 0.06229,0.08089 0.09254,0.122634 0.0605,0.08349 0.118611,0.170006 0.174547,0.258812 0.02797,0.0444 0.0559,0.08912 0.08276,0.134673 0.01459,0.02475 0.02861,0.05018 0.04289,0.07524 v -5.793172 c 0,-4.338979 -1.873457,-6.836696 -5.390661,-6.836696 z" />
    <path
       d="m 65.725761,75.648336 c 5.062157,0 8.086303,-3.484342 8.086303,-9.039565 0,-5.555225 -3.024146,-9.006696 -8.086303,-9.006696 -5.062158,0 -8.086303,3.451471 -8.086303,9.006696 0,5.555223 3.024145,9.039565 8.086303,9.039565 z m 0,-3.845925 c -1.906527,0 -3.024146,-1.249103 -3.024146,-3.418599 v -3.517213 c 0,-2.169496 1.117619,-3.418599 3.024146,-3.418599 1.906526,0 3.024145,1.249103 3.024145,3.418599 v 3.517213 c 0,2.169496 -1.117619,3.418599 -3.024145,3.418599 z"
       id="path3242"
       style="font-weight:bold;font-size:22.5778px;font-family:'IBM Plex Sans';-inkscape-font-specification:'IBM Plex Sans Bold';fill:#ffffff;stroke-width:35.5193;paint-order:stroke fill markers;stop-color:#000000" />
    <path
       d="M 90.47773,75.253882 V 71.4737 h -8.842339 l 8.612241,-9.664117 V 57.996529 H 76.310264 v 3.780182 h 8.28353 l -8.57937,9.631248 v 3.845923 z"
       id="path3244"
       style="font-weight:bold;font-size:22.5778px;font-family:'IBM Plex Sans';-inkscape-font-specification:'IBM Plex Sans Bold';fill:#ffffff;stroke-width:35.5193;paint-order:stroke fill markers;stop-color:#000000" />
    <path
       d="m 100.63493,75.648336 c 5.06216,0 8.0863,-3.484342 8.0863,-9.039565 0,-5.555225 -3.02414,-9.006696 -8.0863,-9.006696 -5.062157,0 -8.086303,3.451471 -8.086303,9.006696 0,5.555223 3.024146,9.039565 8.086303,9.039565 z m 0,-3.845925 c -1.906527,0 -3.024145,-1.249103 -3.024145,-3.418599 v -3.517213 c 0,-2.169496 1.117618,-3.418599 3.024145,-3.418599 1.90653,0 3.02415,1.249103 3.02415,3.418599 v 3.517213 c 0,2.169496 -1.11762,3.418599 -3.02415,3.418599 z"
       id="path3246"
       style="font-weight:bold;font-size:22.5778px;font-family:'IBM Plex Sans';-inkscape-font-specification:'IBM Plex Sans Bold';fill:#ffffff;stroke-width:35.5193;paint-order:stroke fill markers;stop-color:#000000" />
    <path
       d="m 117.03761,75.253882 v -11.17619 c 0,-1.709301 1.54495,-2.531079 3.12276,-2.531079 1.77504,0 2.39959,1.084749 2.39959,3.287115 v 10.420154 h 4.86494 V 64.439275 c 0,-4.338992 -1.87366,-6.8372 -5.39087,-6.8372 -2.72831,0 -4.17463,1.512073 -4.79919,3.319986 h -0.19723 v -2.925532 h -4.86493 v 17.257353 z"
       id="path3248"
       style="font-weight:bold;font-size:22.5778px;font-family:'IBM Plex Sans';-inkscape-font-specification:'IBM Plex Sans Bold';fill:#ffffff;stroke-width:35.5193;paint-order:stroke fill markers;stop-color:#000000" />
  </g>
  <g
     inkscape:groupmode="layer"
     id="layer2"
     inkscape:label="Layer 2"
     transform="translate(-0.57510463,-50.600521)">
    <path
       id="path3289"
       style="fill:#ff7f2a;stroke-width:34.9417;paint-order:stroke fill markers;stop-color:#000000"
       inkscape:transform-center-y="-0.1747687"
       d="m 33.651767,69.487737 c 1.238892,0.331961 1.86082,1.925959 2.185706,3.166727 0.345578,1.319793 0.897909,3.586656 -0.375762,4.075572 -1.273672,0.488917 -1.688538,-2.424203 -3.006336,-2.777306 -1.317799,-0.353103 -3.133642,1.962299 -3.992216,0.90205 -0.858574,-1.06025 0.753185,-2.747247 1.712368,-3.717431 0.901743,-0.912091 2.237347,-1.981572 3.47624,-1.649612 z m 0,-2e-6 c 1.238892,0.331961 1.86082,1.92596 2.185706,3.166728 0.345578,1.319793 0.897909,3.586656 -0.375762,4.075572 -1.273672,0.488916 -1.688538,-2.424204 -3.006336,-2.777306 -1.317799,-0.353104 -3.133642,1.962299 -3.992216,0.90205 -0.858574,-1.06025 0.753185,-2.747248 1.712368,-3.717431 0.901743,-0.912092 2.237347,-1.981572 3.47624,-1.649613 z"
       sodipodi:nodetypes="sssssss"
       inkscape:transform-center-x="0.39653226" />
    <path
       style="fill:#ff7f2a;fill-opacity:1;stroke-width:34.9417;stroke-dasharray:none;paint-order:stroke fill markers;stop-color:#000000"
       d="m 32.455375,74.723145 c 0,0 -2.054445,1.027223 -3.081668,1.540834 -1.027221,0.513612 -1.963919,1.276969 -3.081666,1.540833 -1.999487,0.472015 -4.163848,0.472015 -6.163335,0 -1.117747,-0.263864 -2.054445,-1.027221 -3.081666,-1.540833 -1.027223,-0.513611 -3.081668,-1.540834 -3.081668,-1.540834 0,0 0.869313,2.149981 1.540835,3.081667 0.424708,0.58925 0.951583,1.116125 1.540833,1.540833 0.931686,0.671522 1.963921,1.276971 3.081667,1.540835 1.999487,0.472015 4.163848,0.472016 6.163336,10e-7 1.117746,-0.263864 2.149979,-0.869312 3.081666,-1.540834 0.58925,-0.424708 1.116125,-0.951585 1.540833,-1.540835 0.671522,-0.931686 1.540833,-3.081667 1.540833,-3.081667 z"
       id="path3370"
       sodipodi:nodetypes="csssscssssssc" />
  </g>
</svg>
