<?xml version="1.0" encoding="UTF-8" standalone="no"?>
<!-- Created with Inkscape (http://www.inkscape.org/) -->

<svg
   width="127.99999"
   height="127.99999"
   viewBox="0 0 33.866664 33.866664"
   version="1.1"
   id="svg5"
   inkscape:export-filename="half_star_icon.svg"
   inkscape:export-xdpi="96"
   inkscape:export-ydpi="96"
   inkscape:version="1.2.1 (9c6d41e410, 2022-07-14, custom)"
   sodipodi:docname="star_icon.svg"
   xmlns:inkscape="http://www.inkscape.org/namespaces/inkscape"
   xmlns:sodipodi="http://sodipodi.sourceforge.net/DTD/sodipodi-0.dtd"
   xmlns="http://www.w3.org/2000/svg"
   xmlns:svg="http://www.w3.org/2000/svg">
  <sodipodi:namedview
     id="namedview7"
     pagecolor="#ffffff"
     bordercolor="#000000"
     borderopacity="0.25"
     inkscape:showpageshadow="2"
     inkscape:pageopacity="0.0"
     inkscape:pagecheckerboard="0"
     inkscape:deskcolor="#d1d1d1"
     inkscape:document-units="mm"
     showgrid="true"
     showguides="true"
     inkscape:zoom="5.875"
     inkscape:cx="64"
     inkscape:cy="97.106383"
     inkscape:window-width="1362"
     inkscape:window-height="744"
     inkscape:window-x="0"
     inkscape:window-y="0"
     inkscape:window-maximized="1"
     inkscape:current-layer="layer1">
    <inkscape:grid
       type="xygrid"
       id="grid9"
       empspacing="4" />
    <sodipodi:guide
       position="0,33.866664"
       orientation="0.70710678,0.70710678"
       id="guide11"
       inkscape:locked="false" />
    <sodipodi:guide
       position="0,-2.0186106e-06"
       orientation="-0.70710678,0.70710678"
       id="guide124"
       inkscape:locked="false" />
    <sodipodi:guide
       position="16.933333,16.933331"
       orientation="0,-1"
       id="guide126"
       inkscape:locked="false" />
    <sodipodi:guide
       position="16.933333,16.933331"
       orientation="1,0"
       id="guide128"
       inkscape:locked="false" />
    <sodipodi:guide
       position="8.4666665,25.399997"
       orientation="0,-1"
       id="guide182"
       inkscape:locked="false" />
    <sodipodi:guide
       position="8.4666665,23.283331"
       orientation="1,0"
       id="guide184"
       inkscape:locked="false" />
    <sodipodi:guide
       position="25.399999,25.399997"
       orientation="1,0"
       id="guide186"
       inkscape:locked="false" />
    <sodipodi:guide
       position="16.933333,8.4666645"
       orientation="0,-1"
       id="guide188"
       inkscape:locked="false" />
  </sodipodi:namedview>
  <defs
     id="defs2">
    <linearGradient
       id="linearGradient2995"
       inkscape:swatch="solid">
      <stop
         style="stop-color:#ffe34c;stop-opacity:1;"
         offset="0"
         id="stop2993" />
    </linearGradient>
  </defs>
  <g
     inkscape:label="Layer 1"
     inkscape:groupmode="layer"
     id="layer1">
    <g
       id="path3441"
       inkscape:transform-center-y="-1.6169896"
       style="fill:none;fill-opacity:1">
      <path
         style="color:#000000;fill:none;fill-opacity:1;fill-rule:evenodd;stroke-width:1.05833;stroke-linecap:round;stroke-linejoin:round;-inkscape-stroke:none"
         d="m 16.933333,0 -1e-6,25.4 L 6.980169,30.632686 8.8810535,19.549677 0.82877642,11.700645 11.95675,10.083655 Z"
         id="path1574"
         sodipodi:nodetypes="ccccccc" />
      <path
         style="color:#000000;fill:none;fill-opacity:1;fill-rule:evenodd;stroke-linecap:round;stroke-linejoin:round;-inkscape-stroke:none"
         d="M 16.933594,-0.52929687 A 0.52921795,0.52921795 0 0 0 16.458984,-0.234375 L 11.605469,9.5996094 0.75195312,11.177734 A 0.52921795,0.52921795 0 0 0 0.45898438,12.080078 L 8.3125,19.734375 6.4589844,30.542969 a 0.52921795,0.52921795 0 0 0 0.7675781,0.558593 l 9.7070315,-5.103515 9.707031,5.103515 a 0.52921795,0.52921795 0 0 0 0.767578,-0.558593 L 25.554687,19.734375 33.408203,12.080078 A 0.52921795,0.52921795 0 0 0 33.113281,11.177734 L 22.261719,9.5996094 17.408203,-0.234375 a 0.52921795,0.52921795 0 0 0 -0.474609,-0.29492187 z m 0,1.72460937 4.501953,9.1230465 a 0.52921795,0.52921795 0 0 0 0.398437,0.289063 l 10.066407,1.462891 -7.283204,7.099609 a 0.52921795,0.52921795 0 0 0 -0.152343,0.46875 l 1.71875,10.027344 -9.003907,-4.734375 a 0.52921795,0.52921795 0 0 0 -0.492187,0 L 7.6835937,29.666016 9.4023438,19.638672 A 0.52921795,0.52921795 0 0 0 9.25,19.169922 L 1.9648437,12.070313 12.033203,10.607422 a 0.52921795,0.52921795 0 0 0 0.398438,-0.289063 z"
         id="path1576" />
    </g>
    <path
       id="path3441-3"
       style="fill:none;fill-opacity:1;fill-rule:evenodd;stroke:#464239;stroke-width:1.05833;stroke-linecap:round;stroke-linejoin:round;stroke-dasharray:none;stroke-opacity:1"
       inkscape:transform-center-y="-1.6169896"
       d="m 16.933333,0 4.976582,10.083655 11.127974,1.61699 -8.052278,7.849031 1.900884,11.08301 L 16.933332,25.4 6.980169,30.632686 8.8810535,19.549677 0.82877642,11.700645 11.95675,10.083655 Z" />
  </g>
</svg>
