<?xml version="1.0" encoding="UTF-8" standalone="no"?>
<!-- Created with Inkscape (http://www.inkscape.org/) -->

<svg
   width="128mm"
   height="128mm"
   viewBox="0 0 128 128"
   version="1.1"
   id="svg5"
   xmlns="http://www.w3.org/2000/svg"
   xmlns:svg="http://www.w3.org/2000/svg">
  <defs
     id="defs2" />
  <g
     id="layer1"
     transform="translate(-359.98014,-293.3802)">
    <g
       id="g1526"
       transform="translate(-3.7333322,-12.2)">
      <path
         style="fill:#ffffff;stroke-width:24.3967;paint-order:stroke fill markers"
         d="m 389.61347,335.71353 c 0,0 -1.41112,1.41111 -2.11667,2.11667 -0.70555,0.70556 -1.65574,1.0039 -2.11666,2.11667 -0.46092,1.11277 0,4.23333 0,4.23333 0,0 -0.46092,3.12056 0,4.23333 0.46092,1.11277 1.41111,1.41111 2.11666,2.11667 0.70555,0.70556 2.11667,2.11667 2.11667,2.11667 h 38.1 38.1 c 0,0 1.41111,-1.41111 2.11666,-2.11667 0.70555,-0.70556 1.65574,-1.0039 2.11667,-2.11667 0.46093,-1.11277 0,-4.23333 0,-4.23333 0,0 0.46093,-3.12056 0,-4.23333 -0.46093,-1.11277 -1.41112,-1.41111 -2.11667,-2.11667 -0.70555,-0.70556 -2.11666,-2.11667 -2.11666,-2.11667 h -38.1 z"
         id="path1477" />
      <path
         style="fill:#ffffff;stroke-width:24.3967;paint-order:stroke fill markers"
         d="m 389.61347,361.11353 c 0,0 -1.41112,1.41111 -2.11667,2.11667 -0.70555,0.70556 -1.65574,1.0039 -2.11666,2.11667 -0.46092,1.11277 0,4.23333 0,4.23333 0,0 -0.46092,3.12056 0,4.23333 0.46092,1.11277 1.41111,1.41111 2.11666,2.11667 0.70555,0.70556 2.11667,2.11667 2.11667,2.11667 h 38.1 38.1 c 0,0 1.41111,-1.41111 2.11666,-2.11667 0.70555,-0.70556 1.65574,-1.0039 2.11667,-2.11667 0.46093,-1.11277 0,-4.23333 0,-4.23333 0,0 0.46093,-3.12056 0,-4.23333 -0.46093,-1.11277 -1.41112,-1.41111 -2.11667,-2.11667 -0.70555,-0.70556 -2.11666,-2.11667 -2.11666,-2.11667 h -38.1 z"
         id="path1477-7" />
      <path
         style="fill:#ffffff;stroke-width:24.3967;paint-order:stroke fill markers"
         d="m 389.61347,386.51353 c 0,0 -1.41112,1.41111 -2.11667,2.11667 -0.70555,0.70556 -1.65574,1.0039 -2.11666,2.11667 -0.46092,1.11277 0,4.23333 0,4.23333 0,0 -0.46092,3.12056 0,4.23333 0.46092,1.11277 1.41111,1.41111 2.11666,2.11667 0.70555,0.70556 2.11667,2.11667 2.11667,2.11667 h 38.1 38.1 c 0,0 1.41111,-1.41111 2.11666,-2.11667 0.70555,-0.70556 1.65574,-1.0039 2.11667,-2.11667 0.46093,-1.11277 0,-4.23333 0,-4.23333 0,0 0.46093,-3.12056 0,-4.23333 -0.46093,-1.11277 -1.41112,-1.41111 -2.11667,-2.11667 -0.70555,-0.70556 -2.11666,-2.11667 -2.11666,-2.11667 h -38.1 z"
         id="path1477-5" />
    </g>
  </g>
</svg>
